<svg width="76" height="15" viewBox="0 0 76 15" fill="none" xmlns="http://www.w3.org/2000/svg">
<path d="M31.7658 9.85891L31.0094 9.74563C30.2858 9.63965 29.8692 9.40578 29.8692 8.97823C29.8692 8.48856 30.4137 8.18526 31.2177 8.18526C31.7877 8.18526 32.2482 8.3972 32.694 8.62376L32.7817 8.66761C32.884 8.71877 32.9936 8.74436 33.1069 8.74436C33.37 8.74436 33.6112 8.60184 33.7391 8.37162L33.8012 8.25834C33.8999 8.07928 33.9218 7.87464 33.8597 7.68097C33.8012 7.48729 33.666 7.33016 33.487 7.2388C32.8402 6.91723 32.1422 6.62488 31.2177 6.62488C29.2882 6.62488 28.0458 7.55673 28.0458 9.05498C28.0458 10.2865 28.9301 11.0575 30.6038 11.2841L31.3675 11.3827C32.1751 11.496 32.5697 11.7335 32.5697 12.1136C32.5697 12.4644 32.3797 12.9285 31.13 12.9285C30.4393 12.9285 29.7413 12.7531 29.1713 12.395C29.058 12.3219 28.9264 12.2853 28.7912 12.2853C28.5427 12.2853 28.3052 12.4169 28.1737 12.6325L28.1298 12.7019C28.0238 12.8737 27.9909 13.082 28.0421 13.2793C28.0933 13.473 28.2139 13.6338 28.3893 13.7324C29.3796 14.2915 30.5234 14.4889 31.1263 14.4889C33.1362 14.4889 34.3823 13.6082 34.3823 12.0588C34.3823 10.82 33.5016 10.1074 31.7658 9.85891Z" fill="#0AAD0A"/>
<path d="M55.4234 12.6288L55.3649 12.5667C55.2188 12.4059 55.0105 12.3109 54.7949 12.3109C54.6487 12.3109 54.5025 12.3511 54.3783 12.4315C53.969 12.6909 53.5195 12.8298 53.081 12.8298C51.8715 12.8298 50.9981 11.876 50.9981 10.5605C50.9981 9.24498 51.8751 8.2912 53.081 8.2912C53.5451 8.2912 53.958 8.41546 54.349 8.67491C54.6523 8.87589 55.0835 8.82473 55.332 8.55797L55.3978 8.48854C55.5696 8.30582 55.65 8.06099 55.6207 7.8125C55.5915 7.57131 55.4599 7.35206 55.2589 7.22051C54.6633 6.82584 53.9288 6.61755 53.1285 6.61755C50.8117 6.61755 49.1929 8.23639 49.1929 10.5532C49.1929 12.87 50.8117 14.4888 53.1285 14.4888C53.9325 14.4888 54.6706 14.2769 55.2699 13.8749C55.4709 13.7397 55.6025 13.5278 55.6317 13.2866C55.6609 13.0527 55.5878 12.8115 55.4234 12.6288Z" fill="#0AAD0A"/>
<path d="M17.5434 4.18396C16.9404 4.18396 16.469 4.6627 16.469 5.273C16.469 5.88695 16.9331 6.34741 17.5434 6.34741C18.1537 6.34741 18.6324 5.87598 18.6324 5.273C18.6361 4.6627 18.1574 4.18396 17.5434 4.18396Z" fill="#0AAD0A"/>
<path d="M17.8719 6.91382H17.2361C16.9255 6.91382 16.6733 7.16597 16.6733 7.47658V13.7473C16.6733 14.0579 16.9255 14.3101 17.2361 14.3101H17.8719C18.1826 14.3101 18.4347 14.0579 18.4347 13.7473V7.47658C18.4347 7.16597 18.1826 6.91382 17.8719 6.91382Z" fill="#0AAD0A"/>
<path d="M38.8914 8.32781C39.202 8.32781 39.4541 8.07568 39.4541 7.76506V7.24981C39.4541 6.9392 39.202 6.68705 38.8914 6.68705H37.3456V5.22168C37.3456 4.91107 37.0935 4.65894 36.7829 4.65894H36.1142C35.8035 4.65894 35.5514 4.91107 35.5514 5.22168V11.1526C35.5514 12.9249 36.8962 14.4926 38.7562 14.4926C38.9426 14.4926 39.118 14.4195 39.2495 14.2879C39.3811 14.1564 39.4541 13.981 39.4541 13.7946V13.3597C39.4541 13.0455 39.1984 12.797 38.8841 12.797C38.1715 12.7933 37.3456 12.2342 37.3456 11.2585V8.33147H38.8914V8.32781Z" fill="#0AAD0A"/>
<path d="M23.405 6.62512C21.1503 6.62512 19.8969 8.42669 19.8969 9.96879V13.7436C19.8969 14.0543 20.149 14.3064 20.4596 14.3064H21.1028C21.4134 14.3064 21.6655 14.0543 21.6655 13.7436V10.2502C21.6655 9.0808 22.3745 8.30609 23.4086 8.30609C24.4428 8.30609 25.1517 9.0808 25.1517 10.2502V13.7436C25.1517 14.0543 25.4038 14.3064 25.7145 14.3064H26.3576C26.6682 14.3064 26.9204 14.0543 26.9204 13.7436V9.96879C26.9167 8.42669 25.6596 6.62512 23.405 6.62512Z" fill="#0AAD0A"/>
<path d="M70.4424 6.9355C70.3693 6.81491 70.2524 6.73451 70.1135 6.70528C69.8687 6.65046 69.2584 6.62854 68.9405 6.62854C68.9113 6.62854 68.882 6.62854 68.8564 6.62854C67.1134 6.62854 65.5018 8.05005 65.5018 10.0124V10.016V10.0526V13.7471C65.5018 14.0577 65.754 14.3098 66.0646 14.3098H66.7077C67.0183 14.3098 67.2705 14.0577 67.2705 13.7471V10.0745C67.2705 9.00747 68.0342 8.31316 68.9661 8.31316C69.1378 8.31682 69.3205 8.33508 69.4996 8.37162C69.5471 8.38259 69.5983 8.38624 69.6494 8.38624C70.0039 8.38624 70.3145 8.14141 70.3985 7.79425C70.446 7.60423 70.4789 7.46171 70.5082 7.33381C70.5374 7.1986 70.5155 7.05243 70.4424 6.9355Z" fill="#0AAD0A"/>
<path d="M74.7215 8.32781C75.0321 8.32781 75.2842 8.07568 75.2842 7.76506V7.24981C75.2842 6.9392 75.0321 6.68705 74.7215 6.68705H73.1757V5.22168C73.1757 4.91107 72.9236 4.65894 72.613 4.65894H71.9442C71.6336 4.65894 71.3815 4.91107 71.3815 5.22168V11.1526C71.3815 12.9249 72.7262 14.4926 74.5863 14.4926C74.7726 14.4926 74.948 14.4195 75.0796 14.2879C75.2111 14.1564 75.2842 13.981 75.2842 13.7946V13.3597C75.2842 13.0455 75.0284 12.797 74.7142 12.797C74.0016 12.7933 73.1757 12.2342 73.1757 11.2585V8.33147H74.7215V8.32781Z" fill="#0AAD0A"/>
<path d="M64.161 10.5605C64.161 9.08785 63.5069 7.90021 62.4399 7.22783C62.4399 7.22783 62.4362 7.22782 62.4362 7.22417C61.8405 6.82951 61.106 6.62122 60.3058 6.62122C60.2911 6.62122 60.2765 6.62122 60.2656 6.62122C60.2509 6.62122 60.2363 6.62122 60.2254 6.62122C59.4251 6.62122 58.6906 6.82951 58.0949 7.22417C58.0949 7.22417 58.0913 7.22417 58.0913 7.22783C57.0206 7.90021 56.3701 9.08785 56.3701 10.5605C56.3701 12.1026 57.0863 13.3341 58.2484 13.9846C58.7892 14.3025 59.4324 14.4962 60.1267 14.4962C61.3911 14.4962 62.1548 13.7799 62.396 13.4657V13.7361C62.396 14.0467 62.6481 14.2988 62.9588 14.2988H63.6019C63.9125 14.2988 64.1647 14.0467 64.1647 13.7361V10.5605H64.161ZM60.9745 12.7129C60.7698 12.7823 60.5579 12.8189 60.3496 12.8298C60.335 12.8298 60.3204 12.8298 60.3021 12.8298C60.2911 12.8298 60.2765 12.8298 60.2656 12.8298C60.2546 12.8298 60.24 12.8298 60.229 12.8298C60.2144 12.8298 60.1998 12.8298 60.1815 12.8298C59.9732 12.8225 59.7649 12.7823 59.5566 12.7129C58.7271 12.4205 58.1753 11.6056 58.1753 10.5642C58.1753 9.33268 58.9427 8.41911 60.0317 8.30583C60.039 8.30583 60.0427 8.30583 60.05 8.30583C60.0755 8.30217 60.1011 8.30218 60.123 8.29852C60.1377 8.29852 60.1523 8.29852 60.1669 8.29487C60.1925 8.29487 60.2144 8.29487 60.24 8.29487C60.2473 8.29487 60.2582 8.29487 60.2656 8.29487C60.2729 8.29487 60.2838 8.29487 60.2911 8.29487C60.3167 8.29487 60.3387 8.29487 60.3642 8.29487C60.3788 8.29487 60.3935 8.29487 60.4081 8.29852C60.4337 8.29852 60.4592 8.30217 60.4812 8.30583C60.4885 8.30583 60.4921 8.30583 60.4994 8.30583C61.5884 8.41911 62.3558 9.33268 62.3558 10.5642C62.3558 11.602 61.804 12.4169 60.9745 12.7129Z" fill="#0AAD0A"/>
<path d="M48.009 10.5605C48.009 9.08785 47.3549 7.90021 46.2879 7.22783C46.2879 7.22783 46.2842 7.22782 46.2842 7.22417C45.6886 6.82951 44.9541 6.62122 44.1538 6.62122C44.1392 6.62122 44.1245 6.62122 44.1136 6.62122C44.099 6.62122 44.0844 6.62122 44.0734 6.62122C43.2731 6.62122 42.5386 6.82951 41.9429 7.22417C41.9429 7.22417 41.9393 7.22417 41.9393 7.22783C40.8686 7.90021 40.2181 9.08785 40.2181 10.5605C40.2181 12.1026 40.9344 13.3341 42.0964 13.9846C42.6373 14.3025 43.2804 14.4962 43.9747 14.4962C45.2391 14.4962 46.0028 13.7799 46.244 13.4657V13.7361C46.244 14.0467 46.4962 14.2988 46.8068 14.2988H47.4499C47.7605 14.2988 48.0127 14.0467 48.0127 13.7361V10.5605H48.009ZM44.8189 12.7129C44.6142 12.7823 44.4023 12.8189 44.194 12.8298C44.1794 12.8298 44.1648 12.8298 44.1465 12.8298C44.1355 12.8298 44.1209 12.8298 44.1099 12.8298C44.099 12.8298 44.0844 12.8298 44.0734 12.8298C44.0588 12.8298 44.0442 12.8298 44.0259 12.8298C43.8176 12.8225 43.6093 12.7823 43.401 12.7129C42.5715 12.4205 42.0197 11.6056 42.0197 10.5642C42.0197 9.33268 42.7871 8.41911 43.8761 8.30583C43.8834 8.30583 43.887 8.30583 43.8943 8.30583C43.9199 8.30217 43.9455 8.30218 43.9674 8.29852C43.982 8.29852 43.9967 8.29852 44.0113 8.29487C44.0369 8.29487 44.0588 8.29487 44.0844 8.29487C44.0917 8.29487 44.1026 8.29487 44.1099 8.29487C44.1172 8.29487 44.1282 8.29487 44.1355 8.29487C44.1611 8.29487 44.183 8.29487 44.2086 8.29487C44.2232 8.29487 44.2378 8.29487 44.2524 8.29852C44.278 8.29852 44.3036 8.30217 44.3255 8.30583C44.3328 8.30583 44.3365 8.30583 44.3438 8.30583C45.4328 8.41911 46.2002 9.33268 46.2002 10.5642C46.2002 11.602 45.6484 12.4169 44.8189 12.7129Z" fill="#0AAD0A"/>
<path d="M9.23707 5.91626C10.0666 6.74944 10.7426 8.10882 10.3553 8.92007C9.31746 11.0834 1.58868 14.8802 0.93457 14.2224C0.276802 13.5647 4.07724 5.83222 6.24056 4.79806C7.0445 4.40705 8.40755 5.08674 9.23707 5.91626C9.23707 5.91261 9.24072 5.91261 9.23707 5.91626Z" fill="#FF8200"/>
<path d="M13.3297 5.00248C13.1945 4.5055 12.851 4.00121 12.3394 3.94275C11.4002 3.83312 9.92024 5.49216 10.0262 5.88682C10.1322 6.28148 12.2224 6.97579 13.0044 6.41303C13.4101 6.12435 13.4649 5.49946 13.3297 5.00248ZM10.4245 0.401759C11.1225 0.59178 11.8278 1.0705 11.9118 1.79039C12.0653 3.10592 9.73752 5.18155 9.18572 5.03538C8.63393 4.88555 7.65824 1.95482 8.44756 0.858542C8.84953 0.29213 9.72656 0.215391 10.4245 0.401759C10.4245 0.401759 10.4245 0.398104 10.4245 0.401759Z" fill="#0AAD0A"/>
</svg>
