<svg width="89" height="17" viewBox="0 0 89 17" fill="none" xmlns="http://www.w3.org/2000/svg">
<path d="M36.5763 11.2993L35.6811 11.1653C34.8248 11.0398 34.3318 10.7631 34.3318 10.2571C34.3318 9.67759 34.9762 9.31865 35.9276 9.31865C36.6022 9.31865 37.1471 9.56947 37.6748 9.8376L37.7785 9.88949C37.8996 9.95004 38.0294 9.98032 38.1634 9.98032C38.4748 9.98032 38.7602 9.81165 38.9116 9.5392L38.9851 9.40514C39.1019 9.19323 39.1278 8.95106 39.0543 8.72185C38.9851 8.49265 38.8251 8.30669 38.6132 8.19857C37.8477 7.81801 37.0217 7.47203 35.9276 7.47203C33.6442 7.47203 32.1738 8.57482 32.1738 10.3479C32.1738 11.8053 33.2204 12.7178 35.2011 12.9859L36.1049 13.1027C37.0607 13.2368 37.5277 13.5179 37.5277 13.9676C37.5277 14.3828 37.3028 14.932 35.8238 14.932C35.0065 14.932 34.1804 14.7244 33.5058 14.3006C33.3717 14.2141 33.2161 14.1709 33.056 14.1709C32.762 14.1709 32.4809 14.3266 32.3252 14.5817L32.2733 14.6639C32.1479 14.8672 32.109 15.1136 32.1695 15.3472C32.23 15.5764 32.3728 15.7667 32.5803 15.8834C33.7523 16.5451 35.1059 16.7786 35.8195 16.7786C38.198 16.7786 39.6727 15.7364 39.6727 13.9028C39.6727 12.4367 38.6305 11.5934 36.5763 11.2993Z" fill="white"/>
<path d="M64.5738 14.5774L64.5046 14.5039C64.3316 14.3136 64.0851 14.2012 63.83 14.2012C63.657 14.2012 63.484 14.2487 63.337 14.3439C62.8526 14.6509 62.3207 14.8153 61.8017 14.8153C60.3703 14.8153 59.3367 13.6865 59.3367 12.1297C59.3367 10.5728 60.3746 9.44408 61.8017 9.44408C62.351 9.44408 62.8396 9.59112 63.3024 9.89817C63.6613 10.136 64.1716 10.0755 64.4657 9.75978L64.5435 9.67761C64.7468 9.46138 64.8419 9.17162 64.8073 8.87755C64.7727 8.59212 64.617 8.33265 64.3792 8.17696C63.6743 7.7099 62.805 7.4634 61.8579 7.4634C59.1161 7.4634 57.2003 9.37921 57.2003 12.121C57.2003 14.8628 59.1161 16.7786 61.8579 16.7786C62.8094 16.7786 63.6829 16.5278 64.3922 16.0521C64.63 15.8921 64.7857 15.6413 64.8203 15.3558C64.8549 15.0791 64.7684 14.7936 64.5738 14.5774Z" fill="white"/>
<path d="M19.7449 4.58339C19.0313 4.58339 18.4734 5.14995 18.4734 5.87221C18.4734 6.59878 19.0226 7.14372 19.7449 7.14372C20.4672 7.14372 21.0337 6.58581 21.0337 5.87221C21.038 5.14995 20.4715 4.58339 19.7449 4.58339Z" fill="white"/>
<path d="M20.1337 7.81414H19.3812C19.0136 7.81414 18.7152 8.11254 18.7152 8.48013V15.9012C18.7152 16.2688 19.0136 16.5672 19.3812 16.5672H20.1337C20.5013 16.5672 20.7997 16.2688 20.7997 15.9012V8.48013C20.7997 8.11254 20.5013 7.81414 20.1337 7.81414Z" fill="white"/>
<path d="M45.0091 9.48744C45.3767 9.48744 45.6751 9.18905 45.6751 8.82146V8.21168C45.6751 7.84409 45.3767 7.54569 45.0091 7.54569H43.1798V5.81151C43.1798 5.44391 42.8814 5.14552 42.5138 5.14552H41.7224C41.3548 5.14552 41.0564 5.44391 41.0564 5.81151V12.8304C41.0564 14.9278 42.6479 16.7831 44.8491 16.7831C45.0697 16.7831 45.2772 16.6966 45.4329 16.5409C45.5886 16.3852 45.6751 16.1776 45.6751 15.9571V15.4425C45.6751 15.0705 45.3724 14.7765 45.0005 14.7765C44.1572 14.7721 43.1798 14.1105 43.1798 12.9558V9.49177H45.0091V9.48744Z" fill="white"/>
<path d="M26.6817 7.47239C24.0134 7.47239 22.53 9.60444 22.53 11.4294V15.8968C22.53 16.2644 22.8284 16.5628 23.196 16.5628H23.9572C24.3248 16.5628 24.6231 16.2644 24.6231 15.8968V11.7624C24.6231 10.3785 25.4621 9.46172 26.686 9.46172C27.9099 9.46172 28.7488 10.3785 28.7488 11.7624V15.8968C28.7488 16.2644 29.0472 16.5628 29.4148 16.5628H30.176C30.5436 16.5628 30.842 16.2644 30.842 15.8968V11.4294C30.8376 9.60444 29.35 7.47239 26.6817 7.47239Z" fill="white"/>
<path d="M82.348 7.83979C82.2615 7.69707 82.1231 7.60193 81.9588 7.56733C81.669 7.50246 80.9468 7.47652 80.5706 7.47652C80.536 7.47652 80.5014 7.47652 80.4711 7.47652C78.4083 7.47652 76.5011 9.15881 76.5011 11.4811V11.4854V11.5287V15.9009C76.5011 16.2685 76.7995 16.5669 77.1671 16.5669H77.9282C78.2958 16.5669 78.5942 16.2685 78.5942 15.9009V11.5546C78.5942 10.2919 79.4981 9.47018 80.6008 9.47018C80.8041 9.47451 81.0203 9.49612 81.2322 9.53936C81.2885 9.55234 81.349 9.55667 81.4095 9.55667C81.829 9.55667 82.1966 9.26692 82.2961 8.85608C82.3523 8.6312 82.3912 8.46253 82.4258 8.31117C82.4604 8.15116 82.4345 7.97818 82.348 7.83979Z" fill="white"/>
<path d="M87.4119 9.48744C87.7795 9.48744 88.0779 9.18905 88.0779 8.82146V8.21168C88.0779 7.84409 87.7795 7.54569 87.4119 7.54569H85.5826V5.81151C85.5826 5.44391 85.2842 5.14552 84.9166 5.14552H84.1252C83.7576 5.14552 83.4592 5.44391 83.4592 5.81151V12.8304C83.4592 14.9278 85.0507 16.7831 87.2519 16.7831C87.4725 16.7831 87.6801 16.6966 87.8358 16.5409C87.9914 16.3852 88.0779 16.1776 88.0779 15.9571V15.4425C88.0779 15.0705 87.7752 14.7765 87.4033 14.7765C86.56 14.7721 85.5826 14.1105 85.5826 12.9558V9.49177H87.4119V9.48744Z" fill="white"/>
<path d="M74.9144 12.1298C74.9144 10.387 74.1403 8.98152 72.8775 8.18579C72.8775 8.18579 72.8732 8.18578 72.8732 8.18146C72.1683 7.7144 71.299 7.4679 70.3519 7.4679C70.3346 7.4679 70.3174 7.4679 70.3044 7.4679C70.2871 7.4679 70.2698 7.4679 70.2568 7.4679C69.3097 7.4679 68.4405 7.7144 67.7355 8.18146C67.7355 8.18146 67.7312 8.18146 67.7312 8.18579C66.4641 8.98152 65.6943 10.387 65.6943 12.1298C65.6943 13.9548 66.5419 15.4122 67.9172 16.182C68.5572 16.5582 69.3184 16.7875 70.14 16.7875C71.6364 16.7875 72.5402 15.9398 72.8256 15.5679V15.8879C72.8256 16.2555 73.124 16.5539 73.4916 16.5539H74.2528C74.6204 16.5539 74.9187 16.2555 74.9187 15.8879V12.1298H74.9144ZM71.1434 14.677C70.9012 14.7592 70.6503 14.8025 70.4038 14.8154C70.3865 14.8154 70.3692 14.8154 70.3476 14.8154C70.3346 14.8154 70.3174 14.8154 70.3044 14.8154C70.2914 14.8154 70.2741 14.8154 70.2611 14.8154C70.2438 14.8154 70.2265 14.8154 70.2049 14.8154C69.9584 14.8068 69.7119 14.7592 69.4654 14.677C68.4837 14.3311 67.8307 13.3667 67.8307 12.1342C67.8307 10.6768 68.7389 9.59561 70.0276 9.46154C70.0362 9.46154 70.0406 9.46154 70.0492 9.46154C70.0795 9.45722 70.1098 9.45722 70.1357 9.4529C70.153 9.4529 70.1703 9.45289 70.1876 9.44857C70.2179 9.44857 70.2438 9.44857 70.2741 9.44857C70.2828 9.44857 70.2957 9.44857 70.3044 9.44857C70.313 9.44857 70.326 9.44857 70.3347 9.44857C70.3649 9.44857 70.3909 9.44857 70.4212 9.44857C70.4384 9.44857 70.4557 9.44857 70.473 9.4529C70.5033 9.4529 70.5336 9.45722 70.5595 9.46154C70.5682 9.46154 70.5725 9.46154 70.5812 9.46154C71.8699 9.59561 72.7781 10.6768 72.7781 12.1342C72.7781 13.3624 72.125 14.3267 71.1434 14.677Z" fill="white"/>
<path d="M55.7992 12.1298C55.7992 10.387 55.0251 8.98152 53.7623 8.18579C53.7623 8.18579 53.758 8.18578 53.758 8.18146C53.0531 7.7144 52.1838 7.4679 51.2367 7.4679C51.2194 7.4679 51.2021 7.4679 51.1891 7.4679C51.1718 7.4679 51.1546 7.4679 51.1416 7.4679C50.1945 7.4679 49.3252 7.7144 48.6203 8.18146C48.6203 8.18146 48.616 8.18146 48.616 8.18579C47.3489 8.98152 46.5791 10.387 46.5791 12.1298C46.5791 13.9548 47.4267 15.4122 48.802 16.182C49.442 16.5582 50.2031 16.7875 51.0248 16.7875C52.5211 16.7875 53.425 15.9398 53.7104 15.5679V15.8879C53.7104 16.2555 54.0088 16.5539 54.3764 16.5539H55.1375C55.5051 16.5539 55.8035 16.2555 55.8035 15.8879V12.1298H55.7992ZM52.0238 14.677C51.7816 14.7592 51.5308 14.8025 51.2843 14.8154C51.267 14.8154 51.2497 14.8154 51.2281 14.8154C51.2151 14.8154 51.1978 14.8154 51.1848 14.8154C51.1718 14.8154 51.1546 14.8154 51.1416 14.8154C51.1243 14.8154 51.107 14.8154 51.0854 14.8154C50.8389 14.8068 50.5923 14.7592 50.3458 14.677C49.3641 14.3311 48.7111 13.3667 48.7111 12.1342C48.7111 10.6768 49.6193 9.59561 50.9081 9.46154C50.9167 9.46154 50.921 9.46154 50.9297 9.46154C50.9599 9.45722 50.9902 9.45722 51.0162 9.4529C51.0335 9.4529 51.0508 9.45289 51.0681 9.44857C51.0983 9.44857 51.1243 9.44857 51.1546 9.44857C51.1632 9.44857 51.1762 9.44857 51.1848 9.44857C51.1935 9.44857 51.2064 9.44857 51.2151 9.44857C51.2454 9.44857 51.2713 9.44857 51.3016 9.44857C51.3189 9.44857 51.3362 9.44857 51.3535 9.4529C51.3838 9.4529 51.414 9.45722 51.44 9.46154C51.4486 9.46154 51.4529 9.46154 51.4616 9.46154C52.7503 9.59561 53.6585 10.6768 53.6585 12.1342C53.6585 13.3624 53.0055 14.3267 52.0238 14.677Z" fill="white"/>
<path d="M9.91483 6.63353C10.8965 7.61955 11.6966 9.22831 11.2382 10.1884C10.01 12.7486 0.863387 17.2418 0.0892783 16.4634C-0.689155 15.685 3.80845 6.53407 6.36863 5.3102C7.32005 4.84746 8.93314 5.65184 9.91483 6.63353C9.91483 6.62921 9.91916 6.62921 9.91483 6.63353Z" fill="#FF8200"/>
<path d="M14.7583 5.55207C14.5983 4.96392 14.1918 4.36713 13.5863 4.29793C12.4749 4.16819 10.7234 6.13158 10.8488 6.59864C10.9742 7.0657 13.4479 7.88738 14.3734 7.22138C14.8534 6.87974 14.9183 6.14022 14.7583 5.55207ZM11.3202 0.107366C12.1462 0.332247 12.9809 0.898781 13.0803 1.75073C13.262 3.3076 10.5072 5.76399 9.85415 5.591C9.20113 5.41369 8.04646 1.94533 8.98058 0.647945C9.45629 -0.0223727 10.4942 -0.11319 11.3202 0.107366C11.3202 0.107366 11.3202 0.103042 11.3202 0.107366Z" fill="#0AAD0A"/>
</svg>
